<svg width="28" height="28" viewBox="0 0 28 28" fill="none" xmlns="http://www.w3.org/2000/svg">
<g clip-path="url(#clip0_2705_1655)">
<path d="M7 27.0004L13.28 12.3404C13.3392 12.1982 13.4392 12.0768 13.5673 11.9914C13.6955 11.9059 13.846 11.8604 14 11.8604C14.154 11.8604 14.3045 11.9059 14.4327 11.9914C14.5608 12.0768 14.6608 12.1982 14.72 12.3404L21 27.0004" stroke="#F34622" stroke-width="2" stroke-linecap="round" stroke-linejoin="round"/>
<path d="M9.82001 20.4199H18.18" stroke="#F34622" stroke-width="2" stroke-linecap="round" stroke-linejoin="round"/>
<path d="M1 8C1 6.14348 1.7375 4.36301 3.05025 3.05025C4.36301 1.7375 6.14348 1 8 1" stroke="#F34622" stroke-width="2" stroke-linecap="round" stroke-linejoin="round"/>
<path d="M1 8C1 6.14348 1.7375 4.36301 3.05025 3.05025C4.36301 1.7375 6.14348 1 8 1" stroke="#F34622" stroke-width="2" stroke-linecap="round" stroke-linejoin="round"/>
<path d="M6 8C6 7.46957 6.21071 6.96086 6.58579 6.58579C6.96086 6.21071 7.46957 6 8 6" stroke="#F34622" stroke-width="2" stroke-linecap="round" stroke-linejoin="round"/>
<path d="M6 8C6 7.46957 6.21071 6.96086 6.58579 6.58579C6.96086 6.21071 7.46957 6 8 6" stroke="#F34622" stroke-width="2" stroke-linecap="round" stroke-linejoin="round"/>
<path d="M20 1C21.8565 1 23.637 1.7375 24.9497 3.05025C26.2625 4.36301 27 6.14348 27 8" stroke="#F34622" stroke-width="2" stroke-linecap="round" stroke-linejoin="round"/>
<path d="M20 1C21.8565 1 23.637 1.7375 24.9497 3.05025C26.2625 4.36301 27 6.14348 27 8" stroke="#F34622" stroke-width="2" stroke-linecap="round" stroke-linejoin="round"/>
<path d="M20 6C20.5304 6 21.0391 6.21071 21.4142 6.58579C21.7893 6.96086 22 7.46957 22 8" stroke="#F34622" stroke-width="2" stroke-linecap="round" stroke-linejoin="round"/>
<path d="M20 6C20.5304 6 21.0391 6.21071 21.4142 6.58579C21.7893 6.96086 22 7.46957 22 8" stroke="#F34622" stroke-width="2" stroke-linecap="round" stroke-linejoin="round"/>
</g>
<defs>
<clipPath id="clip0_2705_1655">
<rect width="28" height="28" fill="white"/>
</clipPath>
</defs>
</svg>
