<svg width="28" height="28" viewBox="0 0 28 28" fill="none" xmlns="http://www.w3.org/2000/svg">
<path d="M25 2H3C1.89543 2 1 2.89543 1 4V12C1 13.1046 1.89543 14 3 14H25C26.1046 14 27 13.1046 27 12V4C27 2.89543 26.1046 2 25 2Z" stroke="#F34622" stroke-width="2" stroke-linecap="round" stroke-linejoin="round"/>
<path d="M7 9C7.55228 9 8 8.55228 8 8C8 7.44772 7.55228 7 7 7C6.44772 7 6 7.44772 6 8C6 8.55228 6.44772 9 7 9Z" stroke="#F34622" stroke-width="2" stroke-linecap="round" stroke-linejoin="round"/>
<path d="M15 8H22" stroke="#F34622" stroke-width="2" stroke-linecap="round" stroke-linejoin="round"/>
<path d="M3 14C2.46957 14 1.96086 14.2107 1.58579 14.5858C1.21071 14.9609 1 15.4696 1 16V24C1 24.5304 1.21071 25.0391 1.58579 25.4142C1.96086 25.7893 2.46957 26 3 26H25C25.5304 26 26.0391 25.7893 26.4142 25.4142C26.7893 25.0391 27 24.5304 27 24V16C27 15.4696 26.7893 14.9609 26.4142 14.5858C26.0391 14.2107 25.5304 14 25 14" stroke="#F34622" stroke-width="2" stroke-linecap="round" stroke-linejoin="round"/>
<path d="M7 21C7.55228 21 8 20.5523 8 20C8 19.4477 7.55228 19 7 19C6.44772 19 6 19.4477 6 20C6 20.5523 6.44772 21 7 21Z" stroke="#F34622" stroke-width="2" stroke-linecap="round" stroke-linejoin="round"/>
<path d="M15 20H22" stroke="#F34622" stroke-width="2" stroke-linecap="round" stroke-linejoin="round"/>
</svg>
