<svg width="28" height="28" viewBox="0 0 28 28" fill="none" xmlns="http://www.w3.org/2000/svg">
<path d="M18 7V3C18 2.46957 17.7893 1.96086 17.4142 1.58579C17.0391 1.21071 16.5304 1 16 1H12C11.4696 1 10.9609 1.21071 10.5858 1.58579C10.2107 1.96086 10 2.46957 10 3V7" stroke="#F34622" stroke-width="2" stroke-linecap="round" stroke-linejoin="round"/>
<path d="M18 21V25C18 25.5304 17.7893 26.0391 17.4142 26.4142C17.0391 26.7893 16.5304 27 16 27H12C11.4696 27 10.9609 26.7893 10.5858 26.4142C10.2107 26.0391 10 25.5304 10 25V21" stroke="#F34622" stroke-width="2" stroke-linecap="round" stroke-linejoin="round"/>
<path d="M19 7H9C7.89543 7 7 7.89543 7 9V19C7 20.1046 7.89543 21 9 21H19C20.1046 21 21 20.1046 21 19V9C21 7.89543 20.1046 7 19 7Z" stroke="#F34622" stroke-width="2" stroke-linecap="round" stroke-linejoin="round"/>
</svg>
