<svg width="56" height="56" viewBox="0 0 56 56" fill="none" xmlns="http://www.w3.org/2000/svg">
<g clip-path="url(#clip0_719_5576)">
<path d="M45.6616 0.338867H10.3389C4.81602 0.338867 0.338867 4.81602 0.338867 10.3389V45.6616C0.338867 51.1844 4.81602 55.6616 10.3389 55.6616H45.6616C51.1844 55.6616 55.6616 51.1844 55.6616 45.6616V10.3389C55.6616 4.81602 51.1844 0.338867 45.6616 0.338867Z" fill="#2A1C18"/>
<path d="M27.445 36.913C27.1669 36.8242 26.917 36.6638 26.7204 36.4479C26.5238 36.232 26.3874 35.9682 26.325 35.683C26.2611 35.4192 26.1358 35.1742 25.9593 34.968C25.7828 34.7618 25.5601 34.6001 25.3093 34.4963C25.0586 34.3924 24.7868 34.3491 24.5162 34.3701C24.2456 34.3911 23.9838 34.4757 23.752 34.617C22.209 35.557 20.442 33.791 21.382 32.247C21.5231 32.0153 21.6076 31.7537 21.6285 31.4832C21.6494 31.2128 21.6062 30.9412 21.5025 30.6906C21.3987 30.44 21.2373 30.2174 21.0313 30.0409C20.8253 29.8645 20.5806 29.7391 20.317 29.675C18.561 29.249 18.561 26.751 20.317 26.325C20.5808 26.2611 20.8258 26.1358 21.032 25.9593C21.2382 25.7828 21.3999 25.5601 21.5037 25.3093C21.6076 25.0586 21.6509 24.7868 21.6299 24.5162C21.6089 24.2456 21.5243 23.9838 21.383 23.752C20.443 22.209 22.209 20.442 23.753 21.382C24.753 21.99 26.049 21.452 26.325 20.317C26.751 18.561 29.249 18.561 29.675 20.317C29.7389 20.5808 29.8642 20.8258 30.0407 21.032C30.2172 21.2382 30.4399 21.3999 30.6907 21.5037C30.9414 21.6076 31.2132 21.6509 31.4838 21.6299C31.7544 21.6089 32.0162 21.5243 32.248 21.383C33.791 20.443 35.558 22.209 34.618 23.753C34.4769 23.9847 34.3924 24.2463 34.3715 24.5168C34.3506 24.7872 34.3938 25.0588 34.4975 25.3094C34.6013 25.56 34.7627 25.7826 34.9687 25.9591C35.1747 26.1355 35.4194 26.2609 35.683 26.325C36.993 26.643 37.326 28.115 36.68 29.019" stroke="#F24622" stroke-width="2" stroke-linecap="round" stroke-linejoin="round"/>
<path d="M31 35L33 37L37 33" stroke="#F24622" stroke-width="2" stroke-linecap="round" stroke-linejoin="round"/>
<path d="M25 28C25 28.7956 25.3161 29.5587 25.8787 30.1213C26.4413 30.6839 27.2044 31 28 31C28.7956 31 29.5587 30.6839 30.1213 30.1213C30.6839 29.5587 31 28.7956 31 28C31 27.2044 30.6839 26.4413 30.1213 25.8787C29.5587 25.3161 28.7956 25 28 25C27.2044 25 26.4413 25.3161 25.8787 25.8787C25.3161 26.4413 25 27.2044 25 28Z" stroke="#F24622" stroke-width="2" stroke-linecap="round" stroke-linejoin="round"/>
</g>
<defs>
<clipPath id="clip0_719_5576">
<rect width="56" height="56" fill="white"/>
</clipPath>
</defs>
</svg>
