<svg width="56" height="56" viewBox="0 0 56 56" fill="none" xmlns="http://www.w3.org/2000/svg">
<g clip-path="url(#clip0_719_5550)">
<path d="M45.6616 0.338867H10.3389C4.81602 0.338867 0.338867 4.81602 0.338867 10.3389V45.6616C0.338867 51.1844 4.81602 55.6616 10.3389 55.6616H45.6616C51.1844 55.6616 55.6616 51.1844 55.6616 45.6616V10.3389C55.6616 4.81602 51.1844 0.338867 45.6616 0.338867Z" fill="#2A1C18"/>
<path d="M33 19.3399C34.5083 20.2107 35.7629 21.4604 36.6398 22.9652C37.5167 24.47 37.9854 26.1777 37.9994 27.9192C38.0135 29.6608 37.5725 31.3758 36.72 32.8946C35.8676 34.4133 34.6332 35.6831 33.1392 36.5782C31.6452 37.4733 29.9434 37.9627 28.2021 37.998C26.4608 38.0332 24.7405 37.6131 23.2116 36.7791C21.6826 35.9452 20.3979 34.7264 19.4847 33.2434C18.5715 31.7604 18.0614 30.0646 18.005 28.3239L18 27.9999L18.005 27.6759C18.061 25.9489 18.5635 24.2659 19.4636 22.7909C20.3637 21.3159 21.6307 20.0993 23.1409 19.2598C24.6511 18.4202 26.3531 17.9863 28.081 18.0003C29.8089 18.0144 31.5036 18.4759 33 19.3399ZM31.707 25.2929C31.5348 25.1207 31.3057 25.0173 31.0627 25.002C30.8197 24.9867 30.5794 25.0606 30.387 25.2099L30.293 25.2929L27 28.5849L25.707 27.2929L25.613 27.2099C25.4206 27.0607 25.1804 26.9869 24.9374 27.0022C24.6944 27.0176 24.4654 27.121 24.2933 27.2932C24.1211 27.4653 24.0177 27.6943 24.0024 27.9373C23.987 28.1803 24.0609 28.4205 24.21 28.6129L24.293 28.7069L26.293 30.7069L26.387 30.7899C26.5624 30.926 26.778 30.9998 27 30.9998C27.222 30.9998 27.4376 30.926 27.613 30.7899L27.707 30.7069L31.707 26.7069L31.79 26.6129C31.9393 26.4205 32.0132 26.1802 31.9979 25.9372C31.9826 25.6942 31.8792 25.4651 31.707 25.2929Z" fill="#F24622"/>
</g>
<defs>
<clipPath id="clip0_719_5550">
<rect width="56" height="56" fill="white"/>
</clipPath>
</defs>
</svg>
