<svg width="70" height="70" viewBox="0 0 70 70" fill="none" xmlns="http://www.w3.org/2000/svg">
<rect width="70" height="70" rx="15.5556" fill="#2A1C18"/>
<path d="M31.535 46.06L24.5 50.75V26.25C24.5 24.3935 25.2375 22.613 26.5503 21.3003C27.863 19.9875 29.6435 19.25 31.5 19.25H38.5C40.3565 19.25 42.137 19.9875 43.4497 21.3003C44.7625 22.613 45.5 24.3935 45.5 26.25V34.125M38.5 50.75V43.75C38.5 42.8217 38.8687 41.9315 39.5251 41.2751C40.1815 40.6187 41.0717 40.25 42 40.25C42.9283 40.25 43.8185 40.6187 44.4749 41.2751C45.1313 41.9315 45.5 42.8217 45.5 43.75V50.75M38.5 47.25H45.5M50.75 40.25V50.75" stroke="#F24622" stroke-width="2" stroke-linecap="round" stroke-linejoin="round"/>
</svg>
