<svg width="400" height="300" viewBox="0 0 400 300" fill="none" xmlns="http://www.w3.org/2000/svg">
<rect width="400" height="300" fill="url(#paint0_linear_247_174)"/>
<path d="M1.66667 160C1.66667 162.946 4.05448 165.333 7 165.333C9.94552 165.333 12.3333 162.946 12.3333 160C12.3333 157.054 9.94552 154.667 7 154.667C4.05448 154.667 1.66667 157.054 1.66667 160ZM387.667 223C387.667 225.946 390.054 228.333 393 228.333C395.945 228.333 398.333 225.946 398.333 223C398.333 220.054 395.945 217.667 393 217.667C390.054 217.667 387.667 220.054 387.667 223ZM7 160V161C103.001 161 150.229 176.716 198.064 192.45C246.002 208.218 294.539 224 393 224V223V222C294.831 222 246.519 206.282 198.689 190.55C150.757 174.784 103.3 159 7 159V160Z" fill="black"/>
<path d="M1.66667 181C1.66667 183.946 4.05448 186.333 7 186.333C9.94552 186.333 12.3333 183.946 12.3333 181C12.3333 178.054 9.94552 175.667 7 175.667C4.05448 175.667 1.66667 178.054 1.66667 181ZM387.667 10C387.667 12.9455 390.054 15.3333 393 15.3333C395.945 15.3333 398.333 12.9455 398.333 10C398.333 7.05448 395.945 4.66667 393 4.66667C390.054 4.66667 387.667 7.05448 387.667 10ZM197.575 91.9627C197.575 94.9082 199.963 97.296 202.909 97.296C205.854 97.296 208.242 94.9082 208.242 91.9627C208.242 89.0172 205.854 86.6293 202.909 86.6293C199.963 86.6293 197.575 89.0172 197.575 91.9627ZM279.114 27.2026C279.114 30.1481 281.502 32.5359 284.447 32.5359C287.393 32.5359 289.781 30.1481 289.781 27.2026C289.781 24.257 287.393 21.8692 284.447 21.8692C281.502 21.8692 279.114 24.257 279.114 27.2026ZM7 181V182C56.9632 182 93.4913 170.856 123.862 154.092C154.2 137.346 178.368 115 203.571 92.7118L202.909 91.9627L202.246 91.2136C176.986 113.552 152.998 135.725 122.896 152.341C92.8276 168.938 56.6332 180 7 180V181ZM284.447 27.2026L284.882 28.1031C313.84 14.1198 347.73 11 393 11V10V9C347.699 9 313.409 12.1067 284.012 26.3021L284.447 27.2026Z" fill="black"/>
<path d="M1.66667 203C1.66667 205.946 4.05448 208.333 7 208.333C9.94552 208.333 12.3333 205.946 12.3333 203C12.3333 200.054 9.94552 197.667 7 197.667C4.05448 197.667 1.66667 200.054 1.66667 203ZM387.667 120C387.667 122.946 390.054 125.333 393 125.333C395.945 125.333 398.333 122.946 398.333 120C398.333 117.054 395.945 114.667 393 114.667C390.054 114.667 387.667 117.054 387.667 120ZM7 203V204C103.348 204 150.836 183.191 198.774 162.418C246.596 141.694 294.878 121 393 121V120V119C294.492 119 245.924 139.806 197.979 160.582C150.15 181.309 102.953 202 7 202V203Z" fill="black"/>
<path d="M1.66667 193C1.66667 195.946 4.05448 198.333 7 198.333C9.94552 198.333 12.3333 195.946 12.3333 193C12.3333 190.054 9.94552 187.667 7 187.667C4.05448 187.667 1.66667 190.054 1.66667 193ZM387.667 144C387.667 146.946 390.054 149.333 393 149.333C395.945 149.333 398.333 146.946 398.333 144C398.333 141.054 395.945 138.667 393 138.667C390.054 138.667 387.667 141.054 387.667 144ZM7 193V194C103.267 194 150.699 181.729 198.624 169.469C246.462 157.23 294.798 145 393 145V144V143C294.571 143 246.058 155.27 198.129 167.531C150.286 179.771 103.034 192 7 192V193Z" fill="black"/>
<path d="M1.66667 171C1.66667 173.946 4.05448 176.333 7 176.333C9.94552 176.333 12.3333 173.946 12.3333 171C12.3333 168.054 9.94552 165.667 7 165.667C4.05448 165.667 1.66667 168.054 1.66667 171ZM387.667 196C387.667 198.946 390.054 201.333 393 201.333C395.945 201.333 398.333 198.946 398.333 196C398.333 193.054 395.945 190.667 393 190.667C390.054 190.667 387.667 193.054 387.667 196ZM7 171V172C103.091 172 150.387 178.245 198.247 184.492C246.156 190.745 294.627 197 393 197V196V195C294.743 195 246.364 188.755 198.506 182.508C150.599 176.255 103.21 170 7 170V171Z" fill="black"/>
<path d="M1.66667 149.427C1.66667 152.373 4.05448 154.761 7 154.761C9.94552 154.761 12.3333 152.373 12.3333 149.427C12.3333 146.482 9.94552 144.094 7 144.094C4.05448 144.094 1.66667 146.482 1.66667 149.427ZM245.932 291C245.932 293.946 248.32 296.333 251.266 296.333C254.211 296.333 256.599 293.946 256.599 291C256.599 288.054 254.211 285.667 251.266 285.667C248.32 285.667 245.932 288.054 245.932 291ZM7 149.427L6.37416 150.207C6.53627 150.337 6.7054 150.401 6.80881 150.434C6.92362 150.471 7.03916 150.494 7.14264 150.51C7.34929 150.542 7.59058 150.558 7.84753 150.566C8.36563 150.58 9.05849 150.562 9.89711 150.523C11.578 150.444 13.9508 150.275 16.8967 150.078C22.8024 149.684 31.0934 149.175 41.0714 149.036C61.0318 148.759 87.7223 149.965 115.51 156.535C143.298 163.105 172.146 175.03 196.463 196.167C220.768 217.294 240.594 247.665 250.29 291.217L251.266 291L252.242 290.783C242.457 246.83 222.415 216.076 197.775 194.658C173.147 173.25 143.973 161.209 115.97 154.588C87.9675 147.967 61.0998 146.758 41.0436 147.036C31.0134 147.176 22.6816 147.688 16.7635 148.083C13.7975 148.281 11.4582 148.448 9.80351 148.525C8.97432 148.564 8.34351 148.579 7.90415 148.566C7.68236 148.56 7.53647 148.547 7.45025 148.534C7.4073 148.527 7.39999 148.524 7.41587 148.529C7.42034 148.53 7.51447 148.558 7.62584 148.647L7 149.427Z" fill="black"/>
<defs>
<linearGradient id="paint0_linear_247_174" x1="0" y1="0" x2="429.878" y2="248.265" gradientUnits="userSpaceOnUse">
<stop stop-color="#D1E0F6"/>
<stop offset="1" stop-color="#EBE8F6"/>
</linearGradient>
</defs>
</svg>
