<svg width="400" height="300" viewBox="0 0 400 300" fill="none" xmlns="http://www.w3.org/2000/svg">
<g clip-path="url(#clip0_249_261)">
<rect width="400" height="300" rx="20" fill="url(#paint0_linear_249_261)"/>
<path d="M-215 165.584L-176.617 191.977C-145.514 213.365 -103.526 209.232 -77.1901 182.19L-66.28 170.988C-45.7538 149.911 -12.8874 147.048 10.9745 164.257C38.5393 184.136 77.135 176.861 95.5711 148.311L108.019 129.033C131.256 93.0485 182.196 88.6485 211.259 120.116C231.727 142.276 264.674 147.611 291.089 133.04L292.745 132.127C319.645 117.288 353.512 122.707 374.847 144.812C404.074 175.096 453.818 173.315 480.033 140.389L498.628 117.033C514.118 97.5767 536.563 84.9022 561.223 81.6854L615 74.6704" stroke="#695CFB" stroke-width="2"/>
<path d="M-215 127.9L-159.679 152.456C-136.413 162.784 -109.669 161.716 -87.3001 149.566L-80.9167 146.099C-51.3755 130.054 -14.6875 136.34 7.82741 161.304C36.6531 193.265 86.7736 193.35 115.707 161.486L124.894 151.368C143.12 131.295 169.82 121.107 196.786 123.936L229.277 127.343C240.455 128.516 251.44 131.095 261.971 135.02L285.282 143.709C317.854 155.849 354.481 148.753 380.163 125.328L388.331 117.878C413.449 94.9667 450.546 91.0452 479.9 108.198C506.043 123.476 538.68 122.175 563.525 104.865L615 69" stroke="#00C7F2" stroke-width="2"/>
<path d="M-215 107.768L-173.075 143.214C-142.118 169.388 -99.252 176.361 -61.5947 161.35C-41.3606 153.284 -19.1837 151.422 2.11184 156.002L32.0557 162.443C51.4107 166.605 71.5438 165.277 90.1839 158.607L103.473 153.851C134.229 142.845 168.576 150.652 191.554 173.87C222.37 205.009 271.933 207.264 305.449 179.051L338.333 151.37L360.478 135.193C402.56 104.452 459.367 103.285 502.676 132.273C515.952 141.159 530.82 147.398 546.462 150.646L615 164.879" stroke="#F75D5F" stroke-width="2"/>
<path d="M-215 103.181C-156.209 98.3771 -98.0831 118.345 -54.6559 158.264L-51.9375 160.763C-37.7508 173.804 -21.832 184.824 -4.63192 193.512L4.89551 198.325C41.6222 216.875 83.6111 222.232 123.819 213.496C143.72 209.172 162.739 201.49 180.061 190.779L200.495 178.143C230.694 159.468 263.797 145.96 298.44 138.176L322.475 132.775C333.011 130.408 343.232 126.811 352.928 122.057L369.75 113.81C406.932 95.5815 451.264 100.228 483.858 125.771C508.57 145.136 540.489 152.784 571.294 146.721L615 138.117" stroke="#0FCA7A" stroke-width="2"/>
<path d="M-215 80.1547L-138.332 71.7127C-127.979 70.5727 -117.552 70.2536 -107.148 70.7584L-86.3124 71.7694C-50.4458 73.5098 -16.5293 88.6106 8.76332 114.1C41.9066 147.502 89.2988 162.569 135.646 154.438L153.889 151.237L187.286 142.636C224.323 133.097 263.69 141.528 293.573 165.397L296.007 167.342C322.813 188.754 357.776 197.086 391.359 190.067C416.743 184.761 443.176 188.186 466.37 199.787L475.948 204.577C506.222 219.719 540.82 223.858 573.811 216.285L615 206.83" stroke="#FBC62F" stroke-width="2"/>
</g>
<defs>
<linearGradient id="paint0_linear_249_261" x1="21" y1="23" x2="375.5" y2="300" gradientUnits="userSpaceOnUse">
<stop stop-color="#F5EFFF"/>
<stop offset="1" stop-color="#E7FBFF"/>
</linearGradient>
<clipPath id="clip0_249_261">
<rect width="400" height="300" rx="20" fill="white"/>
</clipPath>
</defs>
</svg>
