<svg width="400" height="300" viewBox="0 0 400 300" fill="none" xmlns="http://www.w3.org/2000/svg">
<g clip-path="url(#clip0_248_197)">
<rect width="400" height="300" rx="20" fill="url(#paint0_linear_248_197)"/>
<path d="M86.8525 105.006C86.8525 96.705 93.5818 89.9757 101.883 89.9757H298.116C306.417 89.9757 313.147 96.705 313.147 105.006V194.994C313.147 203.295 306.417 210.024 298.116 210.024H101.883C93.5818 210.024 86.8525 203.295 86.8525 194.994V105.006Z" fill="#0A65E4"/>
<path d="M151.582 144.024C149.478 144.024 147.528 143.646 145.732 142.888C143.937 142.102 142.366 141.022 141.019 139.647C139.7 138.273 138.676 136.673 137.947 134.85C137.217 133.026 136.853 131.076 136.853 129C136.853 126.896 137.217 124.932 137.947 123.108C138.676 121.284 139.7 119.699 141.019 118.353C142.366 116.978 143.923 115.912 145.69 115.154C147.486 114.369 149.436 113.976 151.54 113.976C153.841 113.976 155.861 114.369 157.6 115.154C159.34 115.94 160.883 117.006 162.23 118.353L159.494 121.088C158.568 120.05 157.432 119.236 156.085 118.647C154.767 118.058 153.252 117.763 151.54 117.763C149.997 117.763 148.58 118.044 147.29 118.605C145.999 119.138 144.877 119.91 143.923 120.92C142.969 121.93 142.225 123.122 141.692 124.497C141.187 125.872 140.935 127.373 140.935 129C140.935 130.627 141.187 132.128 141.692 133.503C142.225 134.878 142.969 136.07 143.923 137.08C144.877 138.09 145.999 138.876 147.29 139.437C148.58 139.97 149.997 140.237 151.54 140.237C153.364 140.237 154.949 139.942 156.296 139.353C157.642 138.736 158.779 137.908 159.705 136.87L162.44 139.563C161.093 140.966 159.508 142.06 157.685 142.846C155.889 143.631 153.855 144.024 151.582 144.024Z" fill="white"/>
<path d="M166.627 143.603V123.613H170.414V143.603H166.627ZM170.414 132.198L168.983 131.567C168.983 129.014 169.572 126.98 170.751 125.465C171.929 123.95 173.627 123.192 175.843 123.192C176.853 123.192 177.765 123.375 178.579 123.739C179.392 124.076 180.15 124.651 180.851 125.465L178.368 128.032C177.947 127.583 177.484 127.261 176.979 127.064C176.474 126.868 175.885 126.77 175.212 126.77C173.809 126.77 172.659 127.218 171.761 128.116C170.863 129.014 170.414 130.375 170.414 132.198Z" fill="white"/>
<path d="M192.119 144.024C190.127 144.024 188.331 143.575 186.732 142.678C185.133 141.752 183.87 140.503 182.945 138.932C182.019 137.361 181.556 135.579 181.556 133.587C181.556 131.623 182.005 129.856 182.902 128.285C183.828 126.713 185.063 125.479 186.606 124.581C188.177 123.655 189.931 123.192 191.867 123.192C193.718 123.192 195.346 123.613 196.748 124.455C198.179 125.297 199.287 126.461 200.073 127.948C200.887 129.435 201.294 131.118 201.294 132.998C201.294 133.279 201.28 133.587 201.251 133.924C201.223 134.233 201.167 134.597 201.083 135.018H184.207V131.862H199.063L197.674 133.082C197.674 131.736 197.436 130.599 196.959 129.673C196.482 128.719 195.808 127.99 194.939 127.485C194.069 126.952 193.017 126.685 191.782 126.685C190.492 126.685 189.355 126.966 188.374 127.527C187.392 128.088 186.634 128.874 186.101 129.884C185.568 130.894 185.301 132.086 185.301 133.461C185.301 134.864 185.582 136.098 186.143 137.164C186.704 138.203 187.504 139.016 188.542 139.605C189.58 140.167 190.772 140.447 192.119 140.447C193.241 140.447 194.265 140.251 195.191 139.858C196.145 139.465 196.959 138.876 197.632 138.09L200.073 140.573C199.119 141.696 197.941 142.551 196.538 143.14C195.163 143.73 193.69 144.024 192.119 144.024Z" fill="white"/>
<path d="M213.925 144.024C212.101 144.024 210.446 143.575 208.959 142.678C207.472 141.752 206.293 140.503 205.423 138.932C204.582 137.361 204.161 135.593 204.161 133.629C204.161 131.665 204.582 129.898 205.423 128.327C206.293 126.755 207.458 125.507 208.916 124.581C210.403 123.655 212.073 123.192 213.925 123.192C215.44 123.192 216.786 123.515 217.965 124.16C219.171 124.777 220.139 125.647 220.869 126.77C221.598 127.864 222.005 129.14 222.089 130.599V136.617C222.005 138.048 221.598 139.325 220.869 140.447C220.167 141.569 219.213 142.453 218.007 143.098C216.828 143.716 215.468 144.024 213.925 144.024ZM214.556 140.447C216.436 140.447 217.951 139.816 219.101 138.553C220.251 137.263 220.826 135.621 220.826 133.629C220.826 132.255 220.56 131.062 220.027 130.052C219.522 129.014 218.792 128.214 217.838 127.653C216.885 127.064 215.776 126.77 214.514 126.77C213.251 126.77 212.129 127.064 211.147 127.653C210.193 128.242 209.436 129.056 208.874 130.094C208.341 131.104 208.075 132.269 208.075 133.587C208.075 134.934 208.341 136.126 208.874 137.164C209.436 138.174 210.207 138.974 211.189 139.563C212.171 140.152 213.293 140.447 214.556 140.447ZM220.574 143.603V138.217L221.289 133.335L220.574 128.495V123.613H224.404V143.603H220.574Z" fill="white"/>
<path d="M232.908 143.603V115.238H236.696V143.603H232.908ZM227.984 127.064V123.613H241.62V127.064H227.984Z" fill="white"/>
<path d="M253.972 144.024C251.98 144.024 250.185 143.575 248.585 142.678C246.986 141.752 245.724 140.503 244.798 138.932C243.872 137.361 243.409 135.579 243.409 133.587C243.409 131.623 243.858 129.856 244.756 128.285C245.681 126.713 246.916 125.479 248.459 124.581C250.03 123.655 251.784 123.192 253.72 123.192C255.571 123.192 257.199 123.613 258.602 124.455C260.032 125.297 261.141 126.461 261.926 127.948C262.74 129.435 263.147 131.118 263.147 132.998C263.147 133.279 263.133 133.587 263.105 133.924C263.077 134.233 263.02 134.597 262.936 135.018H246.06V131.862H260.916L259.527 133.082C259.527 131.736 259.289 130.599 258.812 129.673C258.335 128.719 257.662 127.99 256.792 127.485C255.922 126.952 254.87 126.685 253.635 126.685C252.345 126.685 251.209 126.966 250.227 127.527C249.245 128.088 248.487 128.874 247.954 129.884C247.421 130.894 247.154 132.086 247.154 133.461C247.154 134.864 247.435 136.098 247.996 137.164C248.557 138.203 249.357 139.016 250.395 139.605C251.433 140.167 252.625 140.447 253.972 140.447C255.094 140.447 256.118 140.251 257.044 139.858C257.998 139.465 258.812 138.876 259.485 138.09L261.926 140.573C260.972 141.696 259.794 142.551 258.391 143.14C257.016 143.73 255.543 144.024 253.972 144.024Z" fill="white"/>
<path d="M166.39 185.603V157.238H170.178V185.603H166.39ZM161.466 169.064V165.613H175.102V169.064H161.466Z" fill="white"/>
<path d="M186.697 186.024C184.873 186.024 183.218 185.575 181.731 184.678C180.244 183.752 179.065 182.503 178.196 180.932C177.354 179.361 176.933 177.593 176.933 175.629C176.933 173.665 177.354 171.898 178.196 170.327C179.065 168.755 180.23 167.507 181.689 166.581C183.176 165.655 184.845 165.192 186.697 165.192C188.212 165.192 189.559 165.515 190.737 166.16C191.943 166.777 192.911 167.647 193.641 168.77C194.37 169.864 194.777 171.14 194.861 172.599V178.617C194.777 180.048 194.37 181.325 193.641 182.447C192.939 183.569 191.986 184.453 190.779 185.098C189.601 185.716 188.24 186.024 186.697 186.024ZM187.328 182.447C189.208 182.447 190.723 181.816 191.873 180.553C193.024 179.263 193.599 177.621 193.599 175.629C193.599 174.255 193.332 173.062 192.799 172.052C192.294 171.014 191.565 170.214 190.611 169.653C189.657 169.064 188.549 168.77 187.286 168.77C186.024 168.77 184.901 169.064 183.919 169.653C182.965 170.242 182.208 171.056 181.647 172.094C181.114 173.104 180.847 174.269 180.847 175.587C180.847 176.934 181.114 178.126 181.647 179.164C182.208 180.174 182.979 180.974 183.961 181.563C184.943 182.152 186.066 182.447 187.328 182.447ZM193.346 185.603V180.217L194.062 175.335L193.346 170.495V165.613H197.176V185.603H193.346Z" fill="white"/>
<path d="M209.045 186.024C207.923 186.024 206.857 185.884 205.847 185.603C204.865 185.295 203.953 184.874 203.111 184.341C202.27 183.78 201.54 183.12 200.923 182.363L203.364 179.922C204.093 180.82 204.935 181.493 205.889 181.942C206.843 182.363 207.909 182.573 209.087 182.573C210.266 182.573 211.177 182.377 211.823 181.984C212.468 181.563 212.791 180.988 212.791 180.259C212.791 179.529 212.524 178.968 211.991 178.575C211.486 178.154 210.827 177.818 210.013 177.565C209.2 177.285 208.33 177.018 207.404 176.766C206.506 176.485 205.65 176.134 204.837 175.714C204.023 175.293 203.35 174.717 202.817 173.988C202.312 173.259 202.059 172.291 202.059 171.084C202.059 169.878 202.354 168.84 202.943 167.97C203.532 167.072 204.346 166.385 205.384 165.908C206.45 165.431 207.727 165.192 209.214 165.192C210.785 165.192 212.173 165.473 213.38 166.034C214.614 166.567 215.624 167.381 216.41 168.475L213.969 170.916C213.408 170.186 212.707 169.625 211.865 169.232C211.051 168.84 210.125 168.643 209.087 168.643C207.993 168.643 207.151 168.84 206.562 169.232C206.001 169.597 205.72 170.116 205.72 170.79C205.72 171.463 205.973 171.982 206.478 172.347C206.983 172.711 207.642 173.02 208.456 173.273C209.298 173.525 210.167 173.792 211.065 174.072C211.963 174.325 212.819 174.675 213.632 175.124C214.446 175.573 215.105 176.176 215.61 176.934C216.143 177.691 216.41 178.687 216.41 179.922C216.41 181.802 215.737 183.289 214.39 184.383C213.071 185.477 211.29 186.024 209.045 186.024Z" fill="white"/>
<path d="M233.444 185.603L224.101 175.377L233.36 165.613H237.947L227.636 176.387L227.805 174.198L238.326 185.603H233.444ZM220.65 185.603V155.555H224.438V185.603H220.65Z" fill="white"/>
<g filter="url(#filter0_d_248_197)">
<path d="M248.561 177.569C248.17 175.7 250.172 174.245 251.829 175.195L317.872 213.045C319.552 214.008 319.273 216.513 317.422 217.082L285.368 226.942C284.871 227.095 284.445 227.417 284.162 227.853L268.119 252.566C267.043 254.223 264.5 253.748 264.095 251.814L248.561 177.569Z" fill="#333333"/>
<path d="M316.771 214.966L284.717 224.826C283.724 225.131 282.87 225.776 282.304 226.647L266.262 251.36L250.728 177.116L316.771 214.966Z" stroke="white" stroke-width="4.42769"/>
</g>
</g>
<defs>
<filter id="filter0_d_248_197" x="190.873" y="174.896" width="128.113" height="128.633" filterUnits="userSpaceOnUse" color-interpolation-filters="sRGB">
<feFlood flood-opacity="0" result="BackgroundImageFix"/>
<feColorMatrix in="SourceAlpha" type="matrix" values="0 0 0 0 0 0 0 0 0 0 0 0 0 0 0 0 0 0 127 0" result="hardAlpha"/>
<feOffset dx="-38.426" dy="30.7408"/>
<feGaussianBlur stdDeviation="9.6065"/>
<feColorMatrix type="matrix" values="0 0 0 0 0 0 0 0 0 0 0 0 0 0 0 0 0 0 0.2 0"/>
<feBlend mode="normal" in2="BackgroundImageFix" result="effect1_dropShadow_248_197"/>
<feBlend mode="normal" in="SourceGraphic" in2="effect1_dropShadow_248_197" result="shape"/>
</filter>
<linearGradient id="paint0_linear_248_197" x1="55.9036" y1="-12.5" x2="318.711" y2="159.406" gradientUnits="userSpaceOnUse">
<stop stop-color="#E0FBF5"/>
<stop offset="1" stop-color="#F1F0FE"/>
</linearGradient>
<clipPath id="clip0_248_197">
<rect width="400" height="300" rx="20" fill="white"/>
</clipPath>
</defs>
</svg>
