<svg width="70" height="70" viewBox="0 0 70 70" fill="none" xmlns="http://www.w3.org/2000/svg">
<rect width="70" height="70" rx="15.5556" fill="#F24622"/>
<path d="M44.1 33.9708C46.2699 34.3583 48.1106 35.5014 49.6218 37.4002C51.133 39.2989 51.8887 41.4495 51.8887 43.852C51.8887 45.9057 51.3462 47.7658 50.2612 49.432C49.2149 51.0595 47.6843 52.3576 45.6693 53.3264C43.6543 54.2564 41.31 54.7214 38.6362 54.7214H22.4775V14.3754H34.3236C40.5623 14.0822 42.9956 14.7896 44.9718 15.7196C46.9481 16.6496 48.4399 17.909 49.4474 19.4977C50.4549 21.0477 50.9587 22.7915 50.9587 24.729C50.9587 27.0539 50.3387 28.9914 49.0987 30.5414C47.8587 32.0914 46.1924 33.2345 44.1 33.9708ZM29.1038 31.2971H37.2994C39.4693 31.2971 41.155 30.8127 42.3562 29.8439C43.5962 28.8364 44.2162 27.4027 44.2162 25.5427C44.2162 23.7215 43.5962 22.3071 42.3562 21.2996C41.155 20.2533 39.4693 19.7302 37.2994 19.7302H29.1038V31.2971ZM38.055 49.3158C40.3025 49.3158 42.0656 48.7733 43.3443 47.6883C44.6231 46.6033 45.2624 45.092 45.2624 43.1545C45.2624 41.1783 44.5843 39.6089 43.2281 38.4464C41.8718 37.2839 40.07 36.7027 37.8225 36.7027H29.1038V49.3158H38.055Z" fill="white"/>
<rect x="29.0859" y="11.2271" width="5.23145" height="11.6221" fill="#F24622"/>
<path d="M34.3174 54.7212C32.8272 54.7212 31.6191 53.5132 31.6191 52.023C31.6191 50.5328 32.8272 49.3247 34.3174 49.3247C35.8076 49.3247 37.0156 50.5328 37.0156 52.023C37.0156 53.5132 35.8076 54.7212 34.3174 54.7212Z" fill="white"/>
<path d="M34.3174 36.6963C32.8272 36.6963 31.6191 35.4883 31.6191 33.9981C31.6191 32.5079 32.8272 31.2998 34.3174 31.2998C35.8076 31.2998 37.0156 32.5079 37.0156 33.9981C37.0156 35.4883 35.8076 36.6963 34.3174 36.6963Z" fill="white"/>
<path d="M34.4844 19.721C32.9941 19.721 31.7861 18.5129 31.7861 17.0227C31.7861 15.5325 32.9941 14.3245 34.4844 14.3245C35.9746 14.3245 37.1826 15.5325 37.1826 17.0227C37.1826 18.5129 35.9746 19.721 34.4844 19.721Z" fill="white"/>
</svg>
