<svg width="56" height="56" viewBox="0 0 56 56" fill="none" xmlns="http://www.w3.org/2000/svg">
<g clip-path="url(#clip0_719_5637)">
<path d="M45.6616 0.338867H10.3389C4.81602 0.338867 0.338867 4.81602 0.338867 10.3389V45.6616C0.338867 51.1844 4.81602 55.6616 10.3389 55.6616H45.6616C51.1844 55.6616 55.6616 51.1844 55.6616 45.6616V10.3389C55.6616 4.81602 51.1844 0.338867 45.6616 0.338867Z" fill="#2A1C18"/>
<path d="M20 21C20 21.2652 20.1054 21.5196 20.2929 21.7071C20.4804 21.8946 20.7348 22 21 22C21.2652 22 21.5196 21.8946 21.7071 21.7071C21.8946 21.5196 22 21.2652 22 21C22 20.7348 21.8946 20.4804 21.7071 20.2929C21.5196 20.1054 21.2652 20 21 20C20.7348 20 20.4804 20.1054 20.2929 20.2929C20.1054 20.4804 20 20.7348 20 21Z" fill="#F24622" stroke="#F24622" stroke-width="2" stroke-linecap="round" stroke-linejoin="round"/>
<path d="M27 21C27 21.2652 27.1054 21.5196 27.2929 21.7071C27.4804 21.8946 27.7348 22 28 22C28.2652 22 28.5196 21.8946 28.7071 21.7071C28.8946 21.5196 29 21.2652 29 21C29 20.7348 28.8946 20.4804 28.7071 20.2929C28.5196 20.1054 28.2652 20 28 20C27.7348 20 27.4804 20.1054 27.2929 20.2929C27.1054 20.4804 27 20.7348 27 21Z" fill="#F24622" stroke="#F24622" stroke-width="2" stroke-linecap="round" stroke-linejoin="round"/>
<path d="M34 21C34 21.2652 34.1054 21.5196 34.2929 21.7071C34.4804 21.8946 34.7348 22 35 22C35.2652 22 35.5196 21.8946 35.7071 21.7071C35.8946 21.5196 36 21.2652 36 21C36 20.7348 35.8946 20.4804 35.7071 20.2929C35.5196 20.1054 35.2652 20 35 20C34.7348 20 34.4804 20.1054 34.2929 20.2929C34.1054 20.4804 34 20.7348 34 21Z" stroke="#F24622" stroke-width="2" stroke-linecap="round" stroke-linejoin="round"/>
<path d="M20 28C20 28.2652 20.1054 28.5196 20.2929 28.7071C20.4804 28.8946 20.7348 29 21 29C21.2652 29 21.5196 28.8946 21.7071 28.7071C21.8946 28.5196 22 28.2652 22 28C22 27.7348 21.8946 27.4804 21.7071 27.2929C21.5196 27.1054 21.2652 27 21 27C20.7348 27 20.4804 27.1054 20.2929 27.2929C20.1054 27.4804 20 27.7348 20 28Z" stroke="#F24622" stroke-width="2" stroke-linecap="round" stroke-linejoin="round"/>
<path d="M27 28C27 28.2652 27.1054 28.5196 27.2929 28.7071C27.4804 28.8946 27.7348 29 28 29C28.2652 29 28.5196 28.8946 28.7071 28.7071C28.8946 28.5196 29 28.2652 29 28C29 27.7348 28.8946 27.4804 28.7071 27.2929C28.5196 27.1054 28.2652 27 28 27C27.7348 27 27.4804 27.1054 27.2929 27.2929C27.1054 27.4804 27 27.7348 27 28Z" stroke="#F24622" stroke-width="2" stroke-linecap="round" stroke-linejoin="round"/>
<path d="M34 28C34 28.2652 34.1054 28.5196 34.2929 28.7071C34.4804 28.8946 34.7348 29 35 29C35.2652 29 35.5196 28.8946 35.7071 28.7071C35.8946 28.5196 36 28.2652 36 28C36 27.7348 35.8946 27.4804 35.7071 27.2929C35.5196 27.1054 35.2652 27 35 27C34.7348 27 34.4804 27.1054 34.2929 27.2929C34.1054 27.4804 34 27.7348 34 28Z" stroke="#F24622" stroke-width="2" stroke-linecap="round" stroke-linejoin="round"/>
<path d="M20 35C20 35.2652 20.1054 35.5196 20.2929 35.7071C20.4804 35.8946 20.7348 36 21 36C21.2652 36 21.5196 35.8946 21.7071 35.7071C21.8946 35.5196 22 35.2652 22 35C22 34.7348 21.8946 34.4804 21.7071 34.2929C21.5196 34.1054 21.2652 34 21 34C20.7348 34 20.4804 34.1054 20.2929 34.2929C20.1054 34.4804 20 34.7348 20 35Z" stroke="#F24622" stroke-width="2" stroke-linecap="round" stroke-linejoin="round"/>
<path d="M27 35C27 35.2652 27.1054 35.5196 27.2929 35.7071C27.4804 35.8946 27.7348 36 28 36C28.2652 36 28.5196 35.8946 28.7071 35.7071C28.8946 35.5196 29 35.2652 29 35C29 34.7348 28.8946 34.4804 28.7071 34.2929C28.5196 34.1054 28.2652 34 28 34C27.7348 34 27.4804 34.1054 27.2929 34.2929C27.1054 34.4804 27 34.7348 27 35Z" stroke="#F24622" stroke-width="2" stroke-linecap="round" stroke-linejoin="round"/>
<path d="M34 35C34 35.2652 34.1054 35.5196 34.2929 35.7071C34.4804 35.8946 34.7348 36 35 36C35.2652 36 35.5196 35.8946 35.7071 35.7071C35.8946 35.5196 36 35.2652 36 35C36 34.7348 35.8946 34.4804 35.7071 34.2929C35.5196 34.1054 35.2652 34 35 34C34.7348 34 34.4804 34.1054 34.2929 34.2929C34.1054 34.4804 34 34.7348 34 35Z" stroke="#F24622" stroke-width="2" stroke-linecap="round" stroke-linejoin="round"/>
</g>
<defs>
<clipPath id="clip0_719_5637">
<rect width="56" height="56" fill="white"/>
</clipPath>
</defs>
</svg>
