<svg width="56" height="56" viewBox="0 0 56 56" fill="none" xmlns="http://www.w3.org/2000/svg">
<g clip-path="url(#clip0_719_5592)">
<path d="M45.6616 0.338867H10.3389C4.81602 0.338867 0.338867 4.81602 0.338867 10.3389V45.6616C0.338867 51.1844 4.81602 55.6616 10.3389 55.6616H45.6616C51.1844 55.6616 55.6616 51.1844 55.6616 45.6616V10.3389C55.6616 4.81602 51.1844 0.338867 45.6616 0.338867Z" fill="#2A1C18"/>
<path d="M23.0004 28L28.0004 33L26.5004 34.5C26.1741 34.8371 25.7839 35.1059 25.3527 35.2907C24.9214 35.4755 24.4577 35.5727 23.9885 35.5765C23.5194 35.5803 23.0541 35.4907 22.6199 35.3129C22.1857 35.1351 21.7913 34.8727 21.4595 34.5409C21.1277 34.2092 20.8653 33.8147 20.6875 33.3805C20.5097 32.9463 20.4201 32.4811 20.4239 32.0119C20.4278 31.5427 20.5249 31.079 20.7097 30.6477C20.8945 30.2165 21.1633 29.8263 21.5004 29.5L23.0004 28Z" fill="#F24622" stroke="#F24622" stroke-width="2" stroke-linecap="round" stroke-linejoin="round"/>
<path d="M33 27.9999L28 22.9999L29.5 21.4999C29.8263 21.1628 30.2165 20.894 30.6477 20.7092C31.079 20.5244 31.5427 20.4273 32.0119 20.4235C32.4811 20.4196 32.9463 20.5092 33.3805 20.687C33.8147 20.8648 34.2092 21.1272 34.5409 21.459C34.8727 21.7908 35.1351 22.1852 35.3129 22.6194C35.4907 23.0536 35.5803 23.5189 35.5765 23.988C35.5727 24.4572 35.4755 24.9209 35.2907 25.3522C35.1059 25.7834 34.8371 26.1736 34.5 26.4999L33 27.9999Z" fill="#F24622" stroke="#F24622" stroke-width="2" stroke-linecap="round" stroke-linejoin="round"/>
<path d="M19 37L21.5 34.5" stroke="#F24622" stroke-width="2" stroke-linecap="round" stroke-linejoin="round"/>
<path d="M34.5 21.5L37 19" stroke="#F24622" stroke-width="2" stroke-linecap="round" stroke-linejoin="round"/>
<path d="M26 27L24 29" stroke="#F24622" stroke-width="2" stroke-linecap="round" stroke-linejoin="round"/>
<path d="M29 30L27 32" stroke="#F24622" stroke-width="2" stroke-linecap="round" stroke-linejoin="round"/>
</g>
<defs>
<clipPath id="clip0_719_5592">
<rect width="56" height="56" fill="white"/>
</clipPath>
</defs>
</svg>
