<svg width="56" height="56" viewBox="0 0 56 56" fill="none" xmlns="http://www.w3.org/2000/svg">
<rect x="0.400391" y="0.31366" width="55.3227" height="55.3227" rx="10" fill="#2A1C18"/>
<path d="M20.0615 21.975C20.0615 22.7706 20.9044 23.5337 22.4047 24.0963C23.905 24.6589 25.9398 24.975 28.0615 24.975C30.1833 24.975 32.2181 24.6589 33.7184 24.0963C35.2187 23.5337 36.0615 22.7706 36.0615 21.975M20.0615 21.975C20.0615 21.1793 20.9044 20.4163 22.4047 19.8537C23.905 19.291 25.9398 18.975 28.0615 18.975C30.1833 18.975 32.2181 19.291 33.7184 19.8537C35.2187 20.4163 36.0615 21.1793 36.0615 21.975M20.0615 21.975V27.975M36.0615 21.975V27.975M20.0615 27.975C20.0615 28.7706 20.9044 29.5337 22.4047 30.0963C23.905 30.6589 25.9398 30.975 28.0615 30.975C30.1833 30.975 32.2181 30.6589 33.7184 30.0963C35.2187 29.5337 36.0615 28.7706 36.0615 27.975M20.0615 27.975V33.975C20.0615 34.7706 20.9044 35.5337 22.4047 36.0963C23.905 36.6589 25.9398 36.975 28.0615 36.975C30.1833 36.975 32.2181 36.6589 33.7184 36.0963C35.2187 35.5337 36.0615 34.7706 36.0615 33.975V27.975" stroke="#F24622" stroke-width="2" stroke-linecap="round" stroke-linejoin="round"/>
</svg>
