<svg width="56" height="56" viewBox="0 0 56 56" fill="none" xmlns="http://www.w3.org/2000/svg">
<g clip-path="url(#clip0_719_5630)">
<path d="M45.6616 0.338867H10.3389C4.81602 0.338867 0.338867 4.81602 0.338867 10.3389V45.6616C0.338867 51.1844 4.81602 55.6616 10.3389 55.6616H45.6616C51.1844 55.6616 55.6616 51.1844 55.6616 45.6616V10.3389C55.6616 4.81602 51.1844 0.338867 45.6616 0.338867Z" fill="#2A1C18"/>
<path d="M26.02 34.32L22 37V23C22 21.9391 22.4214 20.9217 23.1716 20.1716C23.9217 19.4214 24.9391 19 26 19H30C31.0609 19 32.0783 19.4214 32.8284 20.1716C33.5786 20.9217 34 21.9391 34 23V27.5M30 37V33C30 32.4696 30.2107 31.9609 30.5858 31.5858C30.9609 31.2107 31.4696 31 32 31C32.5304 31 33.0391 31.2107 33.4142 31.5858C33.7893 31.9609 34 32.4696 34 33V37M30 35H34M37 31V37" stroke="#F24622" stroke-width="2" stroke-linecap="round" stroke-linejoin="round"/>
</g>
<defs>
<clipPath id="clip0_719_5630">
<rect width="56" height="56" fill="white"/>
</clipPath>
</defs>
</svg>
