<svg width="71" height="71" viewBox="0 0 71 71" fill="none" xmlns="http://www.w3.org/2000/svg">
<rect x="0.5" y="0.375488" width="70" height="70" rx="15.5556" fill="#2A1C18"/>
<path d="M21.5 24.8757C21.5 26.2681 22.975 27.6035 25.6005 28.588C28.226 29.5726 31.787 30.1257 35.5 30.1257C39.213 30.1257 42.774 29.5726 45.3995 28.588C48.025 27.6035 49.5 26.2681 49.5 24.8757M21.5 24.8757C21.5 23.4833 22.975 22.148 25.6005 21.1634C28.226 20.1789 31.787 19.6257 35.5 19.6257C39.213 19.6257 42.774 20.1789 45.3995 21.1634C48.025 22.148 49.5 23.4833 49.5 24.8757M21.5 24.8757V35.3757M49.5 24.8757V35.3757M21.5 35.3757C21.5 36.7681 22.975 38.1035 25.6005 39.088C28.226 40.0726 31.787 40.6257 35.5 40.6257C39.213 40.6257 42.774 40.0726 45.3995 39.088C48.025 38.1035 49.5 36.7681 49.5 35.3757M21.5 35.3757V45.8757C21.5 47.2681 22.975 48.6035 25.6005 49.588C28.226 50.5726 31.787 51.1257 35.5 51.1257C39.213 51.1257 42.774 50.5726 45.3995 49.588C48.025 48.6035 49.5 47.2681 49.5 45.8757V35.3757" stroke="#F24622" stroke-width="2" stroke-linecap="round" stroke-linejoin="round"/>
</svg>
