<svg width="70" height="70" viewBox="0 0 70 70" fill="none" xmlns="http://www.w3.org/2000/svg">
<rect width="70" height="70" rx="15.5556" fill="#2A1C18"/>
<path d="M19.25 26.25C19.25 25.3217 19.6187 24.4315 20.2751 23.7751C20.9315 23.1187 21.8217 22.75 22.75 22.75H47.25C48.1783 22.75 49.0685 23.1187 49.7249 23.7751C50.3813 24.4315 50.75 25.3217 50.75 26.25M19.25 26.25V43.75C19.25 44.6783 19.6187 45.5685 20.2751 46.2249C20.9315 46.8813 21.8217 47.25 22.75 47.25H47.25C48.1783 47.25 49.0685 46.8813 49.7249 46.2249C50.3813 45.5685 50.75 44.6783 50.75 43.75V26.25M19.25 26.25L35 36.75L50.75 26.25" stroke="#F24622" stroke-width="2" stroke-linecap="round" stroke-linejoin="round"/>
</svg>
