<svg width="48" height="53" viewBox="0 0 48 53" fill="none" xmlns="http://www.w3.org/2000/svg">
<path d="M13.62 12.26C15.62 12.26 17.24 13.88 17.24 15.88C17.24 19.54 20.21 22.51 23.87 22.51C31.53 22.51 37.74 28.72 37.74 36.38C37.74 38.38 36.12 40 34.12 40C32.12 40 30.5 38.38 30.5 36.38C30.5 32.72 27.53 29.75 23.87 29.75C16.21 29.75 10 23.54 10 15.88C10 13.88 11.62 12.26 13.62 12.26Z" fill="#F24622"/>
<path d="M23.87 50.24C16.22 50.24 10 44.02 10 36.37C10 34.37 11.62 32.75 13.62 32.75C15.62 32.75 17.24 34.37 17.24 36.37C17.24 40.03 20.22 43 23.87 43C25.87 43 27.49 44.62 27.49 46.62C27.49 48.62 25.87 50.24 23.87 50.24ZM34.12 19.49C32.12 19.49 30.5 17.87 30.5 15.87C30.5 12.21 27.52 9.24 23.87 9.24C21.87 9.24 20.25 7.62 20.25 5.62C20.25 3.62 21.87 2 23.87 2C31.52 2 37.74 8.22 37.74 15.87C37.74 17.87 36.12 19.49 34.12 19.49Z" fill="#F24622"/>
</svg>
