<svg width="72" height="71" viewBox="0 0 72 71" fill="none" xmlns="http://www.w3.org/2000/svg">
<rect x="0.774414" y="0.375488" width="70" height="70" rx="15.5556" fill="#2A1C18"/>
<path fill-rule="evenodd" clip-rule="evenodd" d="M29.0003 39.7576C30.3207 39.7576 31.3911 40.828 31.3911 42.1485C31.3911 44.5693 33.3536 46.5317 35.7744 46.5317H38.1653V51.3135H35.7744C30.7127 51.3135 26.6094 47.2102 26.6094 42.1485C26.6094 40.828 27.6798 39.7576 29.0003 39.7576Z" fill="url(#paint0_linear_684_200)"/>
<path fill-rule="evenodd" clip-rule="evenodd" d="M31.3911 28.6011C31.3911 27.2806 30.3207 26.2102 29.0003 26.2102C27.6798 26.2102 26.6094 27.2806 26.6094 28.6011C26.6094 33.6603 30.7086 37.7621 35.7669 37.7662C35.7695 37.7662 35.7721 37.7662 35.7747 37.7662C38.1955 37.7662 40.158 39.7286 40.158 42.1495L40.158 44.5403L44.9398 44.5403V42.1495C44.9398 37.0896 40.8395 32.9874 35.7803 32.9844C35.7783 32.9844 35.7764 32.9844 35.7744 32.9844C33.3536 32.9844 31.3911 31.0219 31.3911 28.6011Z" fill="url(#paint1_linear_684_200)"/>
<path d="M29.0002 44.5393C27.6798 44.5393 26.6093 43.4689 26.6093 42.1485C26.6093 40.828 27.6798 39.7576 29.0002 39.7576C30.3207 39.7576 31.3911 40.828 31.3911 42.1485C31.3911 43.4689 30.3207 44.5393 29.0002 44.5393Z" fill="#F24622"/>
<path d="M29.0002 30.992C27.6798 30.992 26.6093 29.9215 26.6093 28.6011C26.6093 27.2806 27.6798 26.2102 29.0002 26.2102C30.3207 26.2102 31.3911 27.2806 31.3911 28.6011C31.3911 29.9215 30.3207 30.992 29.0002 30.992Z" fill="#F24622"/>
<path fill-rule="evenodd" clip-rule="evenodd" d="M42.5491 30.9919C41.2286 30.9919 40.1582 29.9215 40.1582 28.6011C40.1582 26.1802 38.1957 24.2178 35.7749 24.2178L33.384 24.2178L33.384 19.436L35.7749 19.436C40.8366 19.436 44.9399 23.5393 44.9399 28.6011C44.9399 29.9215 43.8695 30.9919 42.5491 30.9919Z" fill="url(#paint2_linear_684_200)"/>
<path d="M42.5481 30.992C41.2276 30.992 40.1572 29.9215 40.1572 28.6011C40.1572 27.2806 41.2276 26.2102 42.5481 26.2102C43.8685 26.2102 44.939 27.2806 44.939 28.6011C44.939 29.9215 43.8685 30.992 42.5481 30.992Z" fill="#F24622"/>
<defs>
<linearGradient id="paint0_linear_684_200" x1="30.3062" y1="48.9348" x2="38.1654" y2="48.9348" gradientUnits="userSpaceOnUse">
<stop stop-color="#F24622" stop-opacity="0.7"/>
<stop offset="1" stop-color="#F24622" stop-opacity="0"/>
</linearGradient>
<linearGradient id="paint1_linear_684_200" x1="42.3204" y1="30.992" x2="42.3203" y2="44.5403" gradientUnits="userSpaceOnUse">
<stop stop-color="#F24622" stop-opacity="0.7"/>
<stop offset="1" stop-color="#F24622" stop-opacity="0"/>
</linearGradient>
<linearGradient id="paint2_linear_684_200" x1="41.2431" y1="21.8147" x2="33.384" y2="21.8147" gradientUnits="userSpaceOnUse">
<stop stop-color="#F24622" stop-opacity="0.7"/>
<stop offset="1" stop-color="#F24622" stop-opacity="0"/>
</linearGradient>
</defs>
</svg>
