<svg width="70" height="70" viewBox="0 0 70 70" fill="none" xmlns="http://www.w3.org/2000/svg">
<rect width="70" height="70" rx="15.5556" fill="#F24622"/>
<path fill-rule="evenodd" clip-rule="evenodd" d="M26.7302 40.5208C28.428 40.5208 29.8042 41.897 29.8042 43.5947C29.8042 46.7072 32.3274 49.2304 35.4399 49.2304H38.5139V55.3784H35.4399C28.932 55.3784 23.6562 50.1027 23.6562 43.5947C23.6562 41.897 25.0325 40.5208 26.7302 40.5208Z" fill="white"/>
<path fill-rule="evenodd" clip-rule="evenodd" d="M29.8042 26.1763C29.8042 24.4786 28.428 23.1023 26.7302 23.1023C25.0325 23.1023 23.6562 24.4786 23.6562 26.1763C23.6562 32.681 28.9267 37.9547 35.4302 37.9599C35.4335 37.9599 35.4369 37.96 35.4402 37.96C38.5527 37.96 41.0759 40.4831 41.0759 43.5956L41.0759 46.6696L47.2239 46.6696V43.5956C47.2239 37.0901 41.9521 31.8159 35.4474 31.812C35.4449 31.812 35.4424 31.8119 35.4399 31.8119C32.3274 31.8119 29.8042 29.2888 29.8042 26.1763Z" fill="white"/>
<path d="M26.7307 46.6687C25.033 46.6687 23.6567 45.2925 23.6567 43.5947C23.6567 41.897 25.033 40.5208 26.7307 40.5208C28.4284 40.5208 29.8047 41.897 29.8047 43.5947C29.8047 45.2925 28.4284 46.6687 26.7307 46.6687Z" fill="white"/>
<path d="M26.7307 29.2503C25.033 29.2503 23.6567 27.874 23.6567 26.1763C23.6567 24.4786 25.033 23.1023 26.7307 23.1023C28.4284 23.1023 29.8047 24.4786 29.8047 26.1763C29.8047 27.874 28.4284 29.2503 26.7307 29.2503Z" fill="white"/>
<path fill-rule="evenodd" clip-rule="evenodd" d="M44.1496 29.2505C42.4519 29.2505 41.0756 27.8742 41.0756 26.1765C41.0756 23.064 38.5525 20.5408 35.44 20.5408L32.366 20.5408L32.366 14.3928L35.44 14.3928C41.9479 14.3928 47.2236 19.6686 47.2236 26.1765C47.2236 27.8742 45.8474 29.2505 44.1496 29.2505Z" fill="white"/>
<path d="M44.1487 29.2503C42.4509 29.2503 41.0747 27.874 41.0747 26.1763C41.0747 24.4786 42.4509 23.1023 44.1487 23.1023C45.8464 23.1023 47.2227 24.4786 47.2227 26.1763C47.2227 27.874 45.8464 29.2503 44.1487 29.2503Z" fill="white"/>
</svg>
