<svg width="151" height="49" viewBox="0 0 151 49" fill="none" xmlns="http://www.w3.org/2000/svg">
<g clip-path="url(#clip0_140_33)">
<path d="M51.2496 37.9C49.4196 37.9 47.7696 37.59 46.3096 36.97C44.8396 36.32 43.6896 35.42 42.8596 34.25C42.0196 33.08 41.5996 31.72 41.5996 30.17H46.3896C46.4896 31.34 46.9496 32.29 47.7596 33.05C48.5996 33.8 49.7596 34.18 51.2496 34.18C52.7396 34.18 53.9996 33.82 54.8596 33.09C55.7196 32.34 56.1596 31.38 56.1596 30.21C56.1596 29.3 55.8896 28.57 55.3396 28C54.8196 27.43 54.1496 26.99 53.3396 26.68C52.5596 26.37 51.4596 26.03 50.0396 25.67C48.2596 25.2 46.8096 24.74 45.6796 24.27C44.5796 23.78 43.6396 23.03 42.8496 22.02C42.0696 21.01 41.6696 19.66 41.6696 17.98C41.6696 16.43 42.0596 15.07 42.8496 13.9C43.6296 12.73 44.7296 11.84 46.1496 11.22C47.5596 10.6 49.1996 10.29 51.0596 10.29C53.6996 10.29 55.8596 10.95 57.5396 12.27C59.2396 13.57 60.1796 15.35 60.3696 17.63H55.4196C55.3396 16.65 54.8696 15.8 54.0096 15.1C53.1496 14.4 52.0096 14.05 50.5996 14.05C49.3196 14.05 48.2696 14.37 47.4596 15.02C46.6496 15.67 46.2396 16.6 46.2396 17.82C46.2396 18.65 46.4896 19.34 46.9896 19.88C47.5096 20.4 48.1696 20.81 48.9496 21.12C49.7296 21.43 50.8096 21.77 52.1696 22.13C53.9796 22.62 55.4396 23.11 56.5696 23.61C57.7196 24.1 58.6896 24.87 59.4696 25.9C60.2796 26.91 60.6896 28.27 60.6896 29.98C60.6896 31.35 60.3096 32.65 59.5496 33.87C58.8196 35.09 57.7296 36.07 56.2896 36.82C54.8796 37.55 53.1996 37.91 51.2696 37.91L51.2496 37.9Z" fill="white"/>
<path d="M71.9604 19.84V31.69C71.9604 32.49 72.1404 33.08 72.5104 33.44C72.9004 33.78 73.5604 33.95 74.4704 33.95H77.2204V37.64H73.6904C71.6804 37.64 70.1304 37.17 69.0604 36.24C67.9904 35.31 67.4504 33.79 67.4504 31.69V19.84H64.9004V16.23H67.4504V10.29H71.9604V16.23H77.2204V19.84H71.9604Z" fill="white"/>
<path d="M101.941 26.4C101.941 27.2 101.891 27.93 101.781 28.58H85.2609C85.3909 30.29 86.0309 31.66 87.1809 32.7C88.3309 33.74 89.7409 34.25 91.4209 34.25C93.8309 34.25 95.5309 33.25 96.5209 31.26H101.351C100.701 33.23 99.5109 34.85 97.7809 36.12C96.0809 37.36 93.9609 37.98 91.4209 37.98C89.3509 37.98 87.5009 37.53 85.8509 36.62C84.2309 35.69 82.9509 34.39 82.0009 32.73C81.0809 31.05 80.6309 29.1 80.6309 26.9C80.6309 24.7 81.0709 22.77 81.9609 21.11C82.8809 19.43 84.1409 18.13 85.7709 17.22C87.4209 16.31 89.3009 15.86 91.4209 15.86C93.5409 15.86 95.2809 16.3 96.8809 17.18C98.4809 18.06 99.7209 19.3 100.611 20.91C101.501 22.49 101.941 24.32 101.941 26.39V26.4ZM97.2709 25.01C97.2409 23.38 96.6609 22.07 95.5009 21.09C94.3509 20.11 92.9209 19.61 91.2209 19.61C89.6809 19.61 88.3609 20.1 87.2609 21.09C86.1609 22.05 85.5109 23.36 85.3009 25.01H97.2709Z" fill="white"/>
<path d="M111.601 10.28V37.63H107.131V10.28H111.601Z" fill="white"/>
<path d="M122.74 10.28V37.63H118.27V10.28H122.74Z" fill="white"/>
<path d="M127.9 26.83C127.9 24.68 128.35 22.78 129.23 21.12C130.15 19.46 131.38 18.18 132.92 17.27C134.49 16.34 136.22 15.87 138.1 15.87C139.8 15.87 141.28 16.21 142.54 16.88C143.82 17.53 144.84 18.34 145.6 19.33V16.22H150.11V37.63H145.6V34.44C144.84 35.45 143.81 36.29 142.5 36.97C141.19 37.64 139.7 37.98 138.03 37.98C136.17 37.98 134.47 37.51 132.93 36.58C131.39 35.62 130.16 34.3 129.24 32.62C128.35 30.91 127.91 28.98 127.91 26.83H127.9ZM145.6 26.91C145.6 25.43 145.29 24.15 144.66 23.06C144.06 21.97 143.26 21.14 142.27 20.57C141.28 20 140.2 19.72 139.05 19.72C137.9 19.72 136.83 20 135.83 20.57C134.84 21.11 134.02 21.93 133.4 23.02C132.8 24.08 132.5 25.35 132.5 26.83C132.5 28.31 132.8 29.6 133.4 30.72C134.03 31.83 134.84 32.69 135.83 33.28C136.85 33.85 137.92 34.13 139.05 34.13C140.18 34.13 141.27 33.85 142.27 33.28C143.26 32.71 144.06 31.88 144.66 30.79C145.29 29.68 145.6 28.38 145.6 26.9V26.91Z" fill="white"/>
<path d="M3.62 10.25C5.62 10.25 7.24 11.87 7.24 13.87C7.24 17.53 10.21 20.5 13.87 20.5C21.53 20.5 27.74 26.71 27.74 34.37C27.74 36.37 26.12 37.99 24.12 37.99C22.12 37.99 20.5 36.37 20.5 34.37C20.5 30.71 17.53 27.74 13.87 27.74C6.21 27.74 0 21.53 0 13.87C0 11.87 1.62 10.25 3.62 10.25Z" fill="url(#paint0_linear_140_33)"/>
<path d="M13.87 48.23C6.22 48.23 0 42.01 0 34.36C0 32.36 1.62 30.74 3.62 30.74C5.62 30.74 7.24 32.36 7.24 34.36C7.24 38.02 10.22 40.99 13.87 40.99C15.87 40.99 17.49 42.61 17.49 44.61C17.49 46.61 15.87 48.23 13.87 48.23ZM24.12 17.48C22.12 17.48 20.5 15.86 20.5 13.86C20.5 10.2 17.52 7.22999 13.87 7.22999C11.87 7.22999 10.25 5.60999 10.25 3.60999C10.25 1.60999 11.87 -0.0100098 13.87 -0.0100098C21.52 -0.0100098 27.74 6.20999 27.74 13.86C27.74 15.86 26.12 17.48 24.12 17.48Z" fill="url(#paint1_linear_140_33)"/>
</g>
<defs>
<linearGradient id="paint0_linear_140_33" x1="14" y1="-2.68608e-07" x2="8" y2="48" gradientUnits="userSpaceOnUse">
<stop stop-color="#F24622"/>
<stop offset="1" stop-color="#F26A22"/>
</linearGradient>
<linearGradient id="paint1_linear_140_33" x1="14" y1="-2.68608e-07" x2="8" y2="48" gradientUnits="userSpaceOnUse">
<stop stop-color="#F24622"/>
<stop offset="1" stop-color="#F26A22"/>
</linearGradient>
<clipPath id="clip0_140_33">
<rect width="151" height="49" fill="white"/>
</clipPath>
</defs>
</svg>
