<svg width="582" height="187" viewBox="0 0 582 187" fill="none" xmlns="http://www.w3.org/2000/svg">
<path d="M198.911 146.7C191.823 146.7 185.443 145.497 179.772 143.091C174.102 140.585 169.646 137.076 166.406 132.565C163.166 128.054 161.545 122.791 161.545 116.776H180.076C180.481 121.287 182.253 124.996 185.392 127.904C188.633 130.811 193.139 132.264 198.911 132.264C204.885 132.264 209.543 130.861 212.885 128.054C216.227 125.147 217.897 121.438 217.897 116.927C217.897 113.418 216.834 110.561 214.708 108.356C212.682 106.15 210.1 104.446 206.961 103.243C203.923 102.04 199.67 100.737 194.202 99.3336C187.316 97.5292 181.696 95.7248 177.342 93.9204C173.089 92.0157 169.444 89.1086 166.406 85.199C163.368 81.2895 161.849 76.0767 161.849 69.5607C161.849 63.546 163.368 58.2831 166.406 53.7721C169.444 49.261 173.697 45.8026 179.165 43.3967C184.633 40.9908 190.962 39.7878 198.151 39.7878C208.379 39.7878 216.733 42.3441 223.214 47.4566C229.796 52.4689 233.441 59.3858 234.15 68.2074H215.012C214.708 64.3981 212.885 61.1401 209.543 58.4335C206.202 55.7269 201.797 54.3736 196.329 54.3736C191.367 54.3736 187.316 55.6266 184.177 58.1328C181.038 60.6389 179.469 64.2477 179.469 68.9593C179.469 72.1671 180.431 74.8236 182.355 76.9288C184.38 78.9337 186.911 80.5376 189.949 81.7406C192.987 82.9435 197.139 84.2467 202.404 85.6501C209.391 87.5548 215.062 89.4594 219.416 91.3641C223.872 93.2688 227.619 96.226 230.656 100.236C233.796 104.145 235.365 109.408 235.365 116.024C235.365 121.337 233.897 126.35 230.96 131.061C228.125 135.773 223.923 139.582 218.353 142.489C212.885 145.296 206.404 146.7 198.911 146.7Z" fill="white"/>
<path d="M279.036 76.7784V122.641C279.036 125.748 279.745 128.004 281.163 129.407C282.682 130.71 285.213 131.362 288.758 131.362H299.39V145.647H285.72C277.923 145.647 271.948 143.843 267.796 140.234C263.645 136.625 261.569 130.761 261.569 122.641V76.7784H251.696V62.7942H261.569V39.7878H279.036V62.7942H299.39V76.7784H279.036Z" fill="white"/>
<path d="M395.093 102.191C395.093 105.298 394.89 108.105 394.485 110.611H330.539C331.045 117.227 333.526 122.54 337.981 126.55C342.437 130.56 347.905 132.565 354.386 132.565C363.702 132.565 370.284 128.706 374.132 120.987H392.814C390.283 128.605 385.676 134.871 378.992 139.783C372.41 144.594 364.208 147 354.386 147C346.386 147 339.197 145.246 332.817 141.737C326.539 138.129 321.577 133.116 317.932 126.701C314.387 120.185 312.615 112.666 312.615 104.145C312.615 95.6245 314.337 88.1563 317.78 81.7406C321.324 75.2246 326.235 70.2123 332.513 66.7037C338.893 63.1952 346.184 61.4409 354.386 61.4409C362.284 61.4409 369.322 63.145 375.499 66.5534C381.676 69.9617 386.486 74.7735 389.929 80.9887C393.371 87.1037 395.093 94.171 395.093 102.191ZM377.018 96.7774C376.916 90.4619 374.638 85.3995 370.183 81.5902C365.727 77.7809 360.208 75.8762 353.626 75.8762C347.652 75.8762 342.538 77.7809 338.285 81.5902C334.032 85.2993 331.501 90.3617 330.691 96.7774H377.018Z" fill="white"/>
<path d="M432.487 39.7876V145.647H415.171V39.7876H432.487Z" fill="white"/>
<path d="M475.574 39.7876V145.647H458.259V39.7876H475.574Z" fill="white"/>
<path d="M495.574 103.845C495.574 95.5243 497.296 88.1563 500.739 81.7406C504.283 75.3248 509.042 70.3627 515.017 66.8541C521.092 63.2453 527.775 61.4409 535.066 61.4409C541.648 61.4409 547.37 62.7441 552.23 65.3504C557.192 67.8566 561.141 71.0143 564.078 74.8236V62.7942H581.545V145.647H564.078V133.317C561.141 137.226 557.141 140.484 552.078 143.091C547.015 145.697 541.243 147 534.763 147C527.573 147 520.991 145.196 515.017 141.587C509.042 137.878 504.283 132.765 500.739 126.25C497.296 119.633 495.574 112.165 495.574 103.845ZM564.078 104.145C564.078 98.4314 562.863 93.4693 560.432 89.259C558.103 85.0486 555.015 81.8408 551.167 79.6354C547.319 77.43 543.167 76.3273 538.712 76.3273C534.256 76.3273 530.105 77.43 526.257 79.6354C522.409 81.7406 519.27 84.8983 516.839 89.1086C514.51 93.2187 513.346 98.1307 513.346 103.845C513.346 109.559 514.51 114.571 516.839 118.881C519.27 123.192 522.409 126.5 526.257 128.806C530.206 131.011 534.357 132.114 538.712 132.114C543.167 132.114 547.319 131.011 551.167 128.806C555.015 126.6 558.103 123.393 560.432 119.182C562.863 114.872 564.078 109.859 564.078 104.145Z" fill="white"/>
<path d="M54.2121 186.667H68.2121V158.667H54.2121L54.2121 186.667ZM28.5454 133C28.5454 125.268 22.2774 119 14.5454 119C6.81342 119 0.545409 125.268 0.545409 133H28.5454ZM54.2121 158.667C40.0368 158.667 28.5454 147.175 28.5454 133H0.545409C0.545409 162.639 24.5728 186.667 54.2121 186.667L54.2121 158.667Z" fill="url(#paint0_linear_170_449)"/>
<path fill-rule="evenodd" clip-rule="evenodd" d="M28.5454 53.6665C28.5454 45.9345 22.2774 39.6665 14.5454 39.6665C6.81342 39.6665 0.54541 45.9345 0.54541 53.6665C0.54541 83.3058 24.5728 107.333 54.2121 107.333C68.3874 107.333 79.8787 118.825 79.8787 133V147H107.879V133C107.879 103.361 83.8514 79.3332 54.2121 79.3332C40.0368 79.3332 28.5454 67.8418 28.5454 53.6665Z" fill="url(#paint1_linear_170_449)"/>
<circle cx="14.5454" cy="133" r="14" transform="rotate(90 14.5454 133)" fill="#F24622"/>
<circle cx="14.5454" cy="53.6665" r="14" transform="rotate(90 14.5454 53.6665)" fill="#F24622"/>
<path d="M54.2121 -0.000163685L40.2121 -0.000164909L40.2121 27.9998L54.2121 27.9998L54.2121 -0.000163685ZM79.8787 53.6665C79.8787 61.3985 86.1467 67.6665 93.8787 67.6665C101.611 67.6665 107.879 61.3985 107.879 53.6665L79.8787 53.6665ZM54.2121 27.9998C68.3874 27.9998 79.8787 39.4912 79.8787 53.6665L107.879 53.6665C107.879 24.0272 83.8513 -0.000161094 54.2121 -0.000163685L54.2121 27.9998Z" fill="url(#paint2_linear_170_449)"/>
<circle cx="93.8787" cy="53.6665" r="14" transform="rotate(90 93.8787 53.6665)" fill="#F24622"/>
<defs>
<linearGradient id="paint0_linear_170_449" x1="22.1923" y1="172.738" x2="68.2121" y2="172.738" gradientUnits="userSpaceOnUse">
<stop stop-color="#F24622" stop-opacity="0.7"/>
<stop offset="1" stop-color="#F24622" stop-opacity="0"/>
</linearGradient>
<linearGradient id="paint1_linear_170_449" x1="92.5408" y1="67.6665" x2="92.5403" y2="147" gradientUnits="userSpaceOnUse">
<stop stop-color="#F24622" stop-opacity="0.7"/>
<stop offset="1" stop-color="#F24622" stop-opacity="0"/>
</linearGradient>
<linearGradient id="paint2_linear_170_449" x1="86.2318" y1="13.9284" x2="40.2121" y2="13.9284" gradientUnits="userSpaceOnUse">
<stop stop-color="#F24622" stop-opacity="0.7"/>
<stop offset="1" stop-color="#F24622" stop-opacity="0"/>
</linearGradient>
</defs>
</svg>
