<svg width="70" height="70" viewBox="0 0 70 70" fill="none" xmlns="http://www.w3.org/2000/svg">
<rect width="70" height="70" rx="15.5556" fill="#F24622"/>
<path d="M26.1521 17.6396V41.5616C26.1521 44.4056 26.8901 46.5477 28.3661 47.9877C29.8781 49.4277 31.9661 50.1477 34.6301 50.1477C37.3301 50.1477 39.4181 49.4277 40.8941 47.9877C42.4061 46.5477 43.1621 44.4056 43.1621 41.5616V30.5026H49.3181V41.4537C49.3181 44.5137 48.6521 47.1057 47.3201 49.2297C45.9881 51.3537 44.2061 52.9377 41.9741 53.9817C39.7421 55.0257 37.2761 55.5476 34.5761 55.5476C31.8761 55.5476 29.4101 55.0257 27.1781 53.9817C24.9821 52.9377 23.2361 51.3537 21.9401 49.2297C20.6441 47.1057 19.9961 44.5137 19.9961 41.4537V17.6396H26.1521Z" fill="white"/>
<path d="M46.2326 23.7876C44.5349 23.7876 43.1586 22.4114 43.1587 20.7136C43.1587 19.0159 44.5349 17.6396 46.2326 17.6396C47.9304 17.6396 49.3066 19.0159 49.3066 20.7136C49.3066 22.4114 47.9304 23.7876 46.2326 23.7876Z" fill="white"/>
<path d="M46.2326 33.2901C44.5349 33.2901 43.1587 31.9138 43.1587 30.2161C43.1587 28.5184 44.5349 27.1421 46.2326 27.1421C47.9304 27.1421 49.3066 28.5184 49.3066 30.2161C49.3066 31.9138 47.9304 33.2901 46.2326 33.2901Z" fill="white"/>
</svg>
